<svg width="1042" height="1351" viewBox="0 0 1042 1351" fill="none" xmlns="http://www.w3.org/2000/svg">
<rect x="61.5" y="185.5" width="456" height="151" stroke="black"/>
<line x1="63" y1="1284" x2="980" y2="1284" stroke="black" stroke-width="2"/>
<path d="M398.051 128.25L360.75 103.89V99.25H403.75V128.25H398.051Z" fill="#F6CA4A"/>
<path d="M410.25 101.25H406.75V117.25H410.25V101.25Z" fill="#222222"/>
<path d="M417.25 101.25H412.75V117.25H415.75V105.75L421.25 117.25H426.25V101.25H423.25V112.75L417.25 101.25Z" fill="#222222"/>
<path d="M467.25 97.75L423.75 96.75V99.75H429.25V117.25H433.25V99.75H448.75V117.25H453.25V110.25H461.75L466.25 117.25L469.25 115.25L466.25 110.25L470.75 103.75L467.25 97.75Z" fill="#222222"/>
<path d="M435.75 102.25H445.25V104.75H439.25V107.75H443.25V110.25H439.25V114.75H445.25V117.25H435.75V102.25Z" fill="#222222"/>
<path d="M407.186 126.346C407.205 126.58 407.223 126.787 407.238 126.967C407.254 127.143 407.271 127.312 407.291 127.477C407.467 127.566 407.668 127.633 407.895 127.676C408.125 127.719 408.41 127.74 408.75 127.74C408.961 127.74 409.143 127.717 409.295 127.67C409.447 127.619 409.572 127.551 409.67 127.465C409.768 127.379 409.84 127.281 409.887 127.172C409.934 127.062 409.957 126.945 409.957 126.82C409.957 126.699 409.93 126.59 409.875 126.492C409.82 126.395 409.742 126.305 409.641 126.223C409.543 126.141 409.424 126.066 409.283 126C409.143 125.93 408.986 125.861 408.814 125.795L408.311 125.602C407.998 125.48 407.725 125.365 407.49 125.256C407.256 125.146 407.061 125.025 406.904 124.893C406.748 124.756 406.631 124.6 406.553 124.424C406.475 124.248 406.436 124.033 406.436 123.779C406.436 123.514 406.492 123.273 406.605 123.059C406.719 122.84 406.883 122.654 407.098 122.502C407.312 122.35 407.576 122.232 407.889 122.15C408.205 122.068 408.562 122.027 408.961 122.027C409.375 122.027 409.734 122.064 410.039 122.139C410.348 122.209 410.586 122.299 410.754 122.408C410.754 122.455 410.746 122.529 410.73 122.631C410.715 122.729 410.693 122.844 410.666 122.977C410.643 123.105 410.615 123.246 410.584 123.398C410.557 123.551 410.529 123.703 410.502 123.855L409.916 123.756C409.908 123.58 409.9 123.42 409.893 123.275C409.885 123.131 409.877 123.01 409.869 122.912C409.705 122.822 409.523 122.766 409.324 122.742C409.125 122.719 408.895 122.707 408.633 122.707C408.254 122.707 407.977 122.779 407.801 122.924C407.625 123.068 407.537 123.266 407.537 123.516C407.537 123.664 407.568 123.793 407.631 123.902C407.693 124.012 407.777 124.107 407.883 124.189C407.992 124.271 408.119 124.346 408.264 124.412C408.412 124.475 408.57 124.535 408.738 124.594L409.336 124.805C409.645 124.914 409.912 125.027 410.139 125.145C410.365 125.258 410.553 125.383 410.701 125.52C410.85 125.656 410.959 125.807 411.029 125.971C411.104 126.135 411.141 126.316 411.141 126.516C411.141 126.832 411.078 127.107 410.953 127.342C410.828 127.576 410.654 127.771 410.432 127.928C410.209 128.08 409.943 128.195 409.635 128.273C409.33 128.352 408.998 128.391 408.639 128.391C408.404 128.391 408.168 128.373 407.93 128.338C407.695 128.303 407.473 128.258 407.262 128.203C407.055 128.145 406.865 128.08 406.693 128.01C406.525 127.936 406.391 127.863 406.289 127.793L406.576 126.27L407.186 126.346ZM420.077 126.674C420.077 126.896 420.087 127.088 420.107 127.248C420.126 127.404 420.15 127.541 420.177 127.658H421.12V128.162C420.917 128.213 420.687 128.252 420.429 128.279C420.175 128.311 419.89 128.326 419.573 128.326C419.425 128.326 419.296 128.32 419.187 128.309C419.081 128.301 418.995 128.279 418.929 128.244C418.863 128.205 418.814 128.148 418.782 128.074C418.751 128 418.736 127.9 418.736 127.775V127.576L418.648 127.641C418.527 127.73 418.4 127.82 418.267 127.91C418.134 127.996 417.982 128.076 417.81 128.15C417.642 128.221 417.45 128.277 417.236 128.32C417.021 128.367 416.773 128.391 416.491 128.391C415.898 128.391 415.464 128.23 415.191 127.91C414.917 127.59 414.78 127.119 414.78 126.498V123.393C414.78 123.279 414.775 123.178 414.763 123.088C414.751 122.994 414.736 122.908 414.716 122.83C414.646 122.807 414.57 122.791 414.488 122.783C414.405 122.771 414.32 122.766 414.23 122.766H413.743V122.203C413.794 122.191 413.87 122.18 413.972 122.168C414.073 122.152 414.191 122.139 414.323 122.127C414.46 122.115 414.607 122.105 414.763 122.098C414.923 122.09 415.085 122.086 415.249 122.086C415.398 122.086 415.54 122.096 415.677 122.115C415.814 122.131 415.929 122.16 416.023 122.203V126.188C416.023 126.391 416.029 126.582 416.04 126.762C416.056 126.938 416.097 127.092 416.163 127.225C416.23 127.357 416.333 127.463 416.474 127.541C416.618 127.619 416.82 127.658 417.077 127.658C417.273 127.658 417.468 127.629 417.663 127.57C417.859 127.508 418.034 127.441 418.191 127.371C418.351 127.297 418.48 127.229 418.577 127.166C418.679 127.1 418.732 127.061 418.736 127.049C418.779 126.787 418.806 126.492 418.818 126.164C418.829 125.836 418.835 125.494 418.835 125.139V123.393C418.835 123.17 418.812 122.982 418.765 122.83C418.698 122.807 418.624 122.791 418.542 122.783C418.46 122.771 418.374 122.766 418.284 122.766H417.798V122.203C417.849 122.191 417.925 122.18 418.027 122.168C418.128 122.152 418.245 122.139 418.378 122.127C418.515 122.115 418.661 122.105 418.818 122.098C418.978 122.09 419.14 122.086 419.304 122.086C419.452 122.086 419.595 122.096 419.732 122.115C419.872 122.131 419.988 122.16 420.077 122.203V126.674ZM425.733 126.539C425.924 126.906 426.147 127.186 426.401 127.377C426.655 127.564 426.963 127.658 427.327 127.658C427.616 127.658 427.866 127.6 428.077 127.482C428.288 127.365 428.459 127.199 428.592 126.984C428.729 126.77 428.829 126.512 428.891 126.211C428.957 125.906 428.991 125.566 428.991 125.191C428.991 124.363 428.881 123.742 428.663 123.328C428.444 122.914 428.098 122.707 427.625 122.707C427.493 122.707 427.35 122.721 427.198 122.748C427.049 122.775 426.895 122.822 426.735 122.889C426.579 122.951 426.42 123.037 426.26 123.146C426.1 123.256 425.944 123.391 425.791 123.551L425.733 126.539ZM425.721 122.877C425.979 122.607 426.286 122.398 426.641 122.25C427 122.102 427.393 122.027 427.819 122.027C428.202 122.027 428.547 122.098 428.856 122.238C429.164 122.375 429.426 122.574 429.641 122.836C429.86 123.098 430.028 123.42 430.145 123.803C430.262 124.186 430.321 124.619 430.321 125.104C430.321 125.658 430.248 126.143 430.104 126.557C429.959 126.967 429.764 127.309 429.518 127.582C429.276 127.852 428.993 128.055 428.668 128.191C428.344 128.324 428.002 128.391 427.643 128.391C427.276 128.391 426.936 128.332 426.623 128.215C426.311 128.094 426.014 127.928 425.733 127.717V129.656C425.733 129.82 425.737 129.955 425.745 130.061C425.752 130.17 425.778 130.26 425.821 130.33C425.868 130.4 425.938 130.455 426.032 130.494C426.129 130.537 426.266 130.572 426.442 130.6L426.489 131.115C426.196 131.068 425.928 131.039 425.686 131.027C425.444 131.016 425.215 131.01 425 131.01C424.778 131.01 424.565 131.016 424.362 131.027C424.163 131.039 423.952 131.068 423.729 131.115L423.758 130.6C423.938 130.572 424.077 130.541 424.174 130.506C424.276 130.475 424.348 130.43 424.391 130.371C424.438 130.316 424.465 130.244 424.473 130.154C424.481 130.064 424.485 129.949 424.485 129.809V123.381C424.485 123.291 424.483 123.201 424.479 123.111C424.475 123.018 424.463 122.932 424.444 122.854C424.303 122.795 424.131 122.766 423.928 122.766H423.36V122.203C423.407 122.191 423.479 122.18 423.577 122.168C423.674 122.152 423.788 122.139 423.916 122.127C424.045 122.115 424.182 122.105 424.327 122.098C424.475 122.09 424.623 122.086 424.772 122.086C424.959 122.086 425.135 122.096 425.299 122.115C425.467 122.131 425.604 122.16 425.709 122.203L425.721 122.877ZM435.314 126.539C435.505 126.906 435.728 127.186 435.982 127.377C436.236 127.564 436.545 127.658 436.908 127.658C437.197 127.658 437.447 127.6 437.658 127.482C437.869 127.365 438.041 127.199 438.173 126.984C438.31 126.77 438.41 126.512 438.472 126.211C438.539 125.906 438.572 125.566 438.572 125.191C438.572 124.363 438.462 123.742 438.244 123.328C438.025 122.914 437.679 122.707 437.207 122.707C437.074 122.707 436.931 122.721 436.779 122.748C436.63 122.775 436.476 122.822 436.316 122.889C436.16 122.951 436.002 123.037 435.841 123.146C435.681 123.256 435.525 123.391 435.373 123.551L435.314 126.539ZM435.302 122.877C435.56 122.607 435.867 122.398 436.222 122.25C436.582 122.102 436.974 122.027 437.4 122.027C437.783 122.027 438.129 122.098 438.437 122.238C438.746 122.375 439.007 122.574 439.222 122.836C439.441 123.098 439.609 123.42 439.726 123.803C439.843 124.186 439.902 124.619 439.902 125.104C439.902 125.658 439.83 126.143 439.685 126.557C439.541 126.967 439.345 127.309 439.099 127.582C438.857 127.852 438.574 128.055 438.25 128.191C437.925 128.324 437.584 128.391 437.224 128.391C436.857 128.391 436.517 128.332 436.205 128.215C435.892 128.094 435.595 127.928 435.314 127.717V129.656C435.314 129.82 435.318 129.955 435.326 130.061C435.334 130.17 435.359 130.26 435.402 130.33C435.449 130.4 435.519 130.455 435.613 130.494C435.711 130.537 435.847 130.572 436.023 130.6L436.07 131.115C435.777 131.068 435.509 131.039 435.267 131.027C435.025 131.016 434.796 131.01 434.582 131.01C434.359 131.01 434.146 131.016 433.943 131.027C433.744 131.039 433.533 131.068 433.31 131.115L433.339 130.6C433.519 130.572 433.658 130.541 433.755 130.506C433.857 130.475 433.929 130.43 433.972 130.371C434.019 130.316 434.046 130.244 434.054 130.154C434.062 130.064 434.066 129.949 434.066 129.809V123.381C434.066 123.291 434.064 123.201 434.06 123.111C434.056 123.018 434.045 122.932 434.025 122.854C433.884 122.795 433.712 122.766 433.509 122.766H432.941V122.203C432.988 122.191 433.06 122.18 433.158 122.168C433.255 122.152 433.369 122.139 433.498 122.127C433.627 122.115 433.763 122.105 433.908 122.098C434.056 122.09 434.205 122.086 434.353 122.086C434.541 122.086 434.716 122.096 434.88 122.115C435.048 122.131 435.185 122.16 435.291 122.203L435.302 122.877ZM443.647 120.404C443.647 120.303 443.643 120.201 443.636 120.1C443.628 119.998 443.614 119.9 443.595 119.807C443.528 119.783 443.452 119.764 443.366 119.748C443.284 119.732 443.19 119.725 443.085 119.725H442.522V119.215C442.702 119.176 442.94 119.141 443.237 119.109C443.538 119.074 443.878 119.057 444.257 119.057C444.444 119.057 444.583 119.066 444.673 119.086C444.763 119.105 444.833 119.146 444.884 119.209V126.674C444.884 126.896 444.893 127.088 444.913 127.248C444.932 127.404 444.956 127.541 444.983 127.658H445.944V128.186C445.733 128.236 445.497 128.271 445.235 128.291C444.973 128.314 444.677 128.326 444.345 128.326C444.259 128.326 444.171 128.318 444.081 128.303C443.995 128.291 443.917 128.268 443.846 128.232C443.776 128.193 443.718 128.143 443.671 128.08C443.628 128.014 443.606 127.928 443.606 127.822C443.606 127.631 443.612 127.441 443.624 127.254C443.639 127.066 443.647 126.85 443.647 126.604V120.404ZM453.586 123.357C453.613 123.268 453.641 123.182 453.668 123.1C453.695 123.014 453.719 122.932 453.738 122.854C453.684 122.822 453.619 122.801 453.545 122.789C453.475 122.773 453.387 122.766 453.281 122.766H452.953L453.023 122.203C453.176 122.16 453.361 122.131 453.58 122.115C453.799 122.096 454.049 122.086 454.33 122.086C454.615 122.086 454.869 122.096 455.092 122.115C455.318 122.131 455.494 122.16 455.619 122.203V122.766H455.303C455.193 122.766 455.096 122.773 455.01 122.789C454.924 122.801 454.842 122.822 454.764 122.854C454.756 122.861 454.744 122.877 454.729 122.9C454.717 122.924 454.695 122.971 454.664 123.041C454.633 123.107 454.59 123.201 454.535 123.322C454.484 123.439 454.416 123.596 454.33 123.791L451.898 129.398C451.75 129.738 451.592 130.018 451.424 130.236C451.26 130.459 451.082 130.635 450.891 130.764C450.703 130.893 450.498 130.982 450.275 131.033C450.057 131.084 449.822 131.109 449.572 131.109C449.467 131.109 449.363 131.104 449.262 131.092C449.164 131.084 449.074 131.072 448.992 131.057C448.91 131.045 448.84 131.029 448.781 131.01C448.727 130.99 448.688 130.969 448.664 130.945L448.793 130.131C448.941 130.186 449.098 130.227 449.262 130.254C449.426 130.281 449.566 130.295 449.684 130.295C449.859 130.295 450.014 130.277 450.146 130.242C450.279 130.207 450.406 130.127 450.527 130.002C450.652 129.881 450.779 129.703 450.908 129.469C451.037 129.238 451.188 128.924 451.359 128.525L449.174 123.363C449.135 123.273 449.094 123.188 449.051 123.105C449.008 123.02 448.957 122.938 448.898 122.859C448.746 122.801 448.568 122.771 448.365 122.771H448.049L447.949 122.209C448.086 122.166 448.273 122.135 448.512 122.115C448.75 122.096 449.023 122.086 449.332 122.086C449.688 122.086 450.014 122.096 450.311 122.115C450.607 122.135 450.852 122.166 451.043 122.209L451.131 122.771H450.809C450.707 122.771 450.611 122.779 450.521 122.795C450.436 122.807 450.365 122.828 450.311 122.859C450.314 122.879 450.342 122.957 450.393 123.094C450.447 123.23 450.516 123.404 450.598 123.615C450.68 123.822 450.771 124.057 450.873 124.318C450.979 124.576 451.084 124.84 451.189 125.109L452.039 127.248L453.586 123.357Z" fill="black"/>
<path d="M414.438 136.05C414.281 136.143 414.103 136.214 413.906 136.265C413.711 136.315 413.488 136.34 413.237 136.34C412.992 136.34 412.764 136.305 412.556 136.233C412.349 136.16 412.17 136.051 412.019 135.906C411.868 135.759 411.749 135.576 411.663 135.356C411.578 135.135 411.536 134.875 411.536 134.578C411.536 134.277 411.575 134.009 411.653 133.774C411.731 133.54 411.845 133.343 411.995 133.184C412.144 133.022 412.328 132.9 412.546 132.817C412.766 132.733 413.017 132.69 413.298 132.69C413.422 132.69 413.54 132.699 413.652 132.715C413.765 132.731 413.867 132.752 413.96 132.778C414.054 132.803 414.137 132.83 414.209 132.859C414.282 132.888 414.34 132.916 414.382 132.942L414.324 133.623H414.023C413.983 133.514 413.941 133.42 413.899 133.34C413.857 133.258 413.808 133.192 413.752 133.14C413.697 133.088 413.632 133.049 413.557 133.025C413.482 132.999 413.392 132.986 413.286 132.986C413.081 132.986 412.905 133.024 412.759 133.101C412.612 133.177 412.492 133.282 412.397 133.416C412.305 133.547 412.236 133.704 412.19 133.887C412.146 134.067 412.124 134.263 412.124 134.473C412.124 134.736 412.151 134.965 412.205 135.159C412.26 135.351 412.337 135.51 412.437 135.637C412.537 135.764 412.659 135.859 412.8 135.92C412.944 135.981 413.103 136.011 413.279 136.011C413.446 136.011 413.622 135.986 413.806 135.935C413.99 135.885 414.189 135.81 414.402 135.71L414.438 136.05ZM418.479 134.514C418.479 135.007 418.565 135.385 418.737 135.647C418.911 135.907 419.174 136.038 419.523 136.038C419.689 136.038 419.837 136.007 419.965 135.945C420.096 135.883 420.205 135.789 420.292 135.664C420.38 135.537 420.447 135.378 420.493 135.186C420.54 134.993 420.563 134.767 420.563 134.507C420.563 134.001 420.473 133.621 420.292 133.367C420.113 133.113 419.857 132.986 419.523 132.986C419.357 132.986 419.209 133.018 419.079 133.081C418.951 133.143 418.841 133.237 418.752 133.364C418.664 133.491 418.597 133.651 418.549 133.843C418.502 134.033 418.479 134.257 418.479 134.514ZM421.149 134.507C421.149 134.793 421.111 135.05 421.035 135.278C420.96 135.505 420.852 135.697 420.71 135.854C420.57 136.011 420.399 136.131 420.197 136.216C419.997 136.299 419.772 136.34 419.523 136.34C419.271 136.34 419.044 136.299 418.842 136.216C418.642 136.131 418.471 136.011 418.33 135.854C418.188 135.697 418.079 135.505 418.002 135.278C417.928 135.05 417.89 134.793 417.89 134.507C417.89 134.217 417.928 133.96 418.002 133.735C418.079 133.509 418.188 133.319 418.33 133.164C418.471 133.009 418.642 132.892 418.842 132.812C419.044 132.731 419.271 132.69 419.523 132.69C419.772 132.69 419.997 132.731 420.197 132.812C420.397 132.892 420.568 133.009 420.71 133.164C420.852 133.319 420.96 133.509 421.035 133.735C421.111 133.96 421.149 134.217 421.149 134.507ZM425.717 133.047V134.47C425.779 134.472 425.845 134.473 425.917 134.475C425.989 134.475 426.068 134.475 426.156 134.475C426.452 134.475 426.67 134.413 426.808 134.29C426.946 134.164 427.016 133.985 427.016 133.752C427.016 133.619 426.999 133.507 426.964 133.418C426.93 133.327 426.876 133.254 426.801 133.201C426.728 133.145 426.632 133.106 426.515 133.083C426.4 133.059 426.26 133.047 426.095 133.047H425.717ZM425.185 133.333C425.185 133.212 425.172 133.123 425.146 133.066C425.113 133.057 425.077 133.051 425.038 133.049C425.001 133.048 424.962 133.047 424.921 133.047H424.628V132.778C424.682 132.77 424.745 132.763 424.818 132.756C424.892 132.75 424.97 132.745 425.053 132.742C425.136 132.737 425.222 132.733 425.312 132.729C425.403 132.726 425.491 132.724 425.578 132.722C425.666 132.721 425.75 132.72 425.832 132.72C425.913 132.718 425.986 132.717 426.051 132.717C426.297 132.717 426.514 132.734 426.703 132.769C426.892 132.803 427.05 132.86 427.177 132.939C427.305 133.018 427.402 133.122 427.467 133.252C427.532 133.381 427.565 133.54 427.565 133.73C427.565 133.861 427.546 133.977 427.509 134.08C427.473 134.181 427.423 134.27 427.36 134.348C427.298 134.426 427.224 134.492 427.138 134.546C427.053 134.6 426.962 134.644 426.864 134.678C426.885 134.784 426.917 134.889 426.959 134.993C427.002 135.095 427.051 135.194 427.106 135.288C427.161 135.381 427.221 135.468 427.284 135.549C427.349 135.629 427.414 135.698 427.477 135.757C427.542 135.814 427.604 135.859 427.663 135.894C427.723 135.926 427.777 135.942 427.824 135.942H427.96V136.284H427.592C427.444 136.284 427.313 136.258 427.201 136.206C427.089 136.152 426.99 136.083 426.906 135.999C426.823 135.912 426.752 135.815 426.693 135.706C426.636 135.595 426.588 135.483 426.547 135.371C426.508 135.259 426.476 135.15 426.452 135.044C426.427 134.938 426.407 134.845 426.391 134.766C426.278 134.766 426.166 134.765 426.054 134.763C425.941 134.762 425.829 134.758 425.717 134.753V135.618C425.717 135.686 425.72 135.745 425.727 135.793C425.733 135.841 425.742 135.883 425.753 135.92C425.789 135.93 425.828 135.937 425.871 135.94C425.913 135.942 425.958 135.942 426.005 135.942H426.225V136.284C426.098 136.268 425.978 136.258 425.866 136.255C425.755 136.252 425.645 136.25 425.536 136.25C425.386 136.25 425.242 136.252 425.104 136.255C424.967 136.258 424.826 136.268 424.679 136.284V135.942H424.896C424.944 135.942 424.988 135.942 425.031 135.94C425.073 135.938 425.112 135.932 425.148 135.92C425.174 135.854 425.187 135.755 425.187 135.625L425.185 133.333ZM432.242 133.047V134.519C432.293 134.521 432.347 134.522 432.406 134.524C432.466 134.524 432.533 134.524 432.606 134.524C432.778 134.524 432.922 134.506 433.036 134.47C433.151 134.434 433.243 134.385 433.312 134.321C433.382 134.256 433.431 134.178 433.46 134.087C433.49 133.996 433.504 133.894 433.504 133.782C433.504 133.645 433.487 133.529 433.453 133.435C433.421 133.341 433.369 133.265 433.299 133.208C433.229 133.151 433.141 133.11 433.036 133.086C432.93 133.06 432.805 133.047 432.66 133.047H432.242ZM431.71 133.354C431.71 133.224 431.697 133.127 431.671 133.064C431.645 133.057 431.608 133.053 431.561 133.052C431.515 133.049 431.469 133.047 431.422 133.047H431.153V132.778C431.336 132.754 431.542 132.738 431.771 132.729C432.002 132.72 432.259 132.715 432.542 132.715C432.788 132.715 433.005 132.731 433.192 132.764C433.381 132.796 433.539 132.853 433.666 132.935C433.792 133.016 433.889 133.125 433.954 133.262C434.019 133.398 434.051 133.571 434.051 133.779C434.051 133.942 434.024 134.089 433.971 134.219C433.917 134.347 433.833 134.457 433.719 134.548C433.607 134.638 433.461 134.707 433.282 134.756C433.105 134.803 432.892 134.827 432.643 134.827C432.586 134.827 432.524 134.826 432.457 134.824C432.392 134.823 432.32 134.819 432.242 134.814V135.618C432.242 135.686 432.245 135.745 432.252 135.793C432.258 135.841 432.267 135.883 432.279 135.92C432.315 135.93 432.354 135.937 432.396 135.94C432.438 135.942 432.483 135.942 432.53 135.942H432.75V136.284C432.623 136.268 432.503 136.258 432.391 136.255C432.28 136.252 432.171 136.25 432.062 136.25C431.912 136.25 431.768 136.252 431.629 136.255C431.493 136.258 431.351 136.268 431.205 136.284V135.942H431.422C431.469 135.942 431.514 135.942 431.556 135.94C431.598 135.938 431.638 135.932 431.673 135.92C431.699 135.854 431.712 135.755 431.712 135.625L431.71 133.354Z" fill="black"/>
<path d="M445.25 133.25L435.75 137.75L437.25 140.75L435.75 144.75L438.25 147.25L441.75 142.75L445.25 144.75L445.75 150.75H448.75L450.75 144.75H453.75L457.75 149.75H459.75V142.75L462.75 140.75L467.25 145.25L469.25 142.75L467.25 138.25L470.25 134.25L474.25 135.75L475.25 134.25L471.75 130.75L472.25 125.75L476.75 125.25V121.75H471.75L470.25 118.75L466.75 121.25L465.75 126.25L462.75 131.75L457.75 135.75L452.25 136.75L445.25 133.25Z" fill="#222222"/>
<path d="M382.655 122.727L374.008 116.75L372.16 119.549L367.946 120.25L367.031 123.665L372.678 124.446L372.696 128.477L367.75 131.91L369.25 134.508L375.446 133.24L376.946 135.838L374.616 141.803L375.616 143.535L381.678 140.035L384.91 141.633L383.263 147.78L386.428 148.262L389.325 144.28L394.289 144.878L394.99 149.092L396.789 149.208L398.071 144.427L402.651 142.36L405.334 146.007L408.365 144.257L405.865 139.927L407.713 137.128L403.798 135.347L398.968 136.981L392.704 137.133L386.74 134.803L383.124 130.539L382.655 122.727Z" fill="#222222"/>
<path d="M466.25 102.75L463.25 100.25H454.75H453.25H452.75V107.25L454.75 107.75L458.75 103.25L460.75 107.75L464.75 106.25L466.25 102.75Z" fill="white"/>
<path d="M752.789 107.484C753.818 107.354 754.56 106.97 755.016 106.332C755.471 105.681 756.083 104.027 756.852 101.371L761.207 86.4688C761.35 85.9609 761.461 85.5182 761.539 85.1406C761.63 84.75 761.676 84.4115 761.676 84.125C761.676 83.5651 761.48 83.2135 761.09 83.0703C760.699 82.9141 759.938 82.8164 758.805 82.7773V81.7422H767.652L769.82 100.824L782.184 81.7422H790.66V82.7773C789.749 82.8945 789.111 83.0768 788.746 83.3242C788.173 83.7148 787.73 84.4701 787.418 85.5898L782.516 103.598C782.398 103.988 782.294 104.385 782.203 104.789C782.125 105.193 782.086 105.531 782.086 105.805C782.086 106.469 782.275 106.892 782.652 107.074C783.043 107.243 783.831 107.38 785.016 107.484V108.5H772.516V107.484C773.857 107.354 774.775 107.139 775.27 106.84C775.777 106.527 776.188 105.785 776.5 104.613L781.539 86.1953L766.5 109.027H765.387L762.691 86.8398L758.668 101.371C758.46 102.113 758.303 102.732 758.199 103.227C758.017 104.034 757.926 104.678 757.926 105.16C757.926 106.098 758.297 106.742 759.039 107.094C759.456 107.302 760.152 107.432 761.129 107.484V108.5H752.789V107.484ZM788.648 107.484C789.599 107.367 790.302 107.133 790.758 106.781C791.214 106.43 791.591 105.707 791.891 104.613L796.793 86.6641C796.936 86.1562 797.04 85.7331 797.105 85.3945C797.184 85.043 797.223 84.737 797.223 84.4766C797.223 83.7995 797.034 83.3763 796.656 83.207C796.279 83.0247 795.491 82.8815 794.293 82.7773V81.7422H806.188V82.7773C805.211 82.9076 804.501 83.1419 804.059 83.4805C803.629 83.819 803.264 84.5417 802.965 85.6484L798.043 103.598L797.73 104.984C797.704 105.115 797.678 105.251 797.652 105.395C797.639 105.525 797.633 105.648 797.633 105.766C797.633 106.443 797.815 106.872 798.18 107.055C798.544 107.237 799.332 107.38 800.543 107.484V108.5H788.648V107.484ZM819.605 98.5977L818.121 88.8711L812.203 98.5977H819.605ZM803.043 107.543C803.785 107.322 804.332 107.081 804.684 106.82C805.204 106.443 805.784 105.74 806.422 104.711L821.266 81.1953H822.301L826.129 104.066C826.389 105.603 826.702 106.547 827.066 106.898C827.431 107.237 828.232 107.452 829.469 107.543V108.5H817.34V107.543C818.486 107.452 819.293 107.27 819.762 106.996C820.243 106.71 820.484 106.124 820.484 105.238C820.484 104.939 820.413 104.223 820.27 103.09C820.243 102.855 820.113 101.885 819.879 100.18H811.266L808.922 104.242C808.766 104.516 808.622 104.815 808.492 105.141C808.375 105.466 808.316 105.779 808.316 106.078C808.316 106.625 808.479 106.977 808.805 107.133C809.143 107.289 809.84 107.426 810.895 107.543V108.5H803.043V107.543Z" fill="black"/>
<path d="M840.695 94.1133H850.52L848.586 98.7422H838.781L840.695 94.1133Z" fill="black"/>
</svg>
